# xmcd
#
# Track frame offsets:
#	150
#	12690
#	24369
#	36822
#	53012
#	62312
#	74667
#	87370
#	102675
#	118135
#	130917
#	145445
#	159875
#	173845
#	190107
#	204642
#	217025
#	228632
#	241792
#	252047
#
# Disc length: 3516 seconds
#
# Revision: 1
# Processed by: cddbd v1.5.2PL0 Copyright (c) Steve Scherf et al.
# Submitted via: EasyCDDAExtractor 2010.6.0.0
#
DISCID=200dba14
DTITLE=Alvaro Torres - Su Majestad La Flauta
DYEAR=1999
DGENRE=Acid
TTITLE0=Nuestro Juramento
TTITLE1=Yo No Sé Que Me Han Hecho Tus Ojos
TTITLE2=Cuanto Te Debo
TTITLE3=Los Libros
TTITLE4=Veinte Años
TTITLE5=Soñar Y Nada Mas
TTITLE6=Noches De Bocagrande
TTITLE7=Añoranza
TTITLE8=Romance De Mi Destino
TTITLE9=El Escapulario
TTITLE10=Bendición Celestial
TTITLE11=Piedad
TTITLE12=Tatuaje
TTITLE13=Llámame
TTITLE14=Dulce Hogar
TTITLE15=Porcentaje
TTITLE16=Noche Venturosa
TTITLE17=A La Sombra De Mamá
TTITLE18=Los Versos A Mi Madre
TTITLE19=Quién
EXTD=
EXTT0=
EXTT1=
EXTT2=
EXTT3=
EXTT4=
EXTT5=
EXTT6=
EXTT7=
EXTT8=
EXTT9=
EXTT10=
EXTT11=
EXTT12=
EXTT13=
EXTT14=
EXTT15=
EXTT16=
EXTT17=
EXTT18=
EXTT19=
PLAYORDER=
